<svg class="SudokuSvg readonly" xmlns="http://www.w3.org/2000/svg" viewBox="-1.5 -1.5 453 453" font-size="16" font-family="Arial, sans-serif"><g transform=""><rect width="450" height="450" fill="#fff"></rect><g transform="translate(425, 25) scale(25)"><path d="M-1-1H1V1H-1z" fill="#fde967"></path></g><g transform="translate(75, 75) scale(25)"><path d="M-1-1H1V1H-1z" fill="#ec6688"></path></g><g transform="translate(425, 75) scale(25)"><path d="M-1-1H1V1H-1z" fill="#fde967"></path></g><g transform="translate(425, 125) scale(25)"><path d="M-1-1H1V1H-1z" fill="#fde967"></path></g><g transform="translate(325, 175) scale(25)"><path d="M-1-1H1V1H-1z" fill="#fde967"></path></g><g transform="translate(375, 175) scale(25)"><path d="M-1-1H1V1H-1z" fill="#fde967"></path></g><g transform="translate(425, 175) scale(25)"><path d="M-1-1H1V1H-1z" fill="#fde967"></path></g><g transform="translate(325, 225) scale(25)"><path d="M-1-1H1V1H-1z" fill="#fde967"></path></g><g transform="translate(375, 225) scale(25)"><path d="M-1-1H1V1H-1z" fill="#ec6688"></path></g><g transform="translate(425, 225) scale(25)"><path d="M-1-1H1V1H-1z" fill="#fde967"></path></g><g transform="translate(375, 275) scale(25)"><path d="M-1-1H1V1H-1z" fill="#ec6688"></path></g><g transform="translate(425, 275) scale(25)"><path d="M-1-1H1V1H-1z" fill="#fde967"></path></g><g transform="translate(275, 325) scale(25)"><path d="M-1-1H1V1H-1z" fill="#fde967"></path></g><g transform="translate(375, 325) scale(25)"><path d="M-1-1H1V1H-1z" fill="#fde967"></path></g><g transform="translate(425, 325) scale(25)"><path d="M-1-1H1V1H-1z" fill="#fde967"></path></g><g transform="translate(275, 375) scale(25)"><path d="M-1-1H1V1H-1z" fill="#fde967"></path></g><g transform="translate(325, 375) scale(25)"><path d="M-1-1H1V1H-1z" fill="#ec6688"></path></g><g transform="translate(375, 375) scale(25)"><path d="M-1-1H1V1H-1z" fill="#ec6688"></path></g><g transform="translate(425, 375) scale(25)"><path d="M-1-1H1V1H-1z" fill="#fde967"></path></g><g transform="translate(175, 425) scale(25)"><path d="M-1-1H1V1H-1z" fill="#fde967"></path></g><g transform="translate(225, 425) scale(25)"><path d="M-1-1H1V1H-1z" fill="#fde967"></path></g><g transform="translate(275, 425) scale(25)"><path d="M-1-1H1V1H-1z" fill="#fde967"></path></g><g transform="translate(325, 425) scale(25)"><path d="M-1-1H1V1H-1z" fill="#fde967"></path></g><g transform="translate(375, 425) scale(25)"><path d="M-1-1H1V1H-1z" fill="#fde967"></path></g><g transform="translate(425, 425) scale(25)"><path d="M-1-1H1V1H-1z" fill="#fde967"></path></g><g transform="scale(50)"><path d="" fill="#fff0" stroke-width="0.1" stroke-dasharray=""></path><path d="" fill="transparent" stroke="#eedd0099" stroke-width="0.14" stroke-dasharray=""></path><g transform="translate(6.5 6.5) rotate(0)"><ellipse rx="0.4" ry="0.4" fill="#ffffff" stroke="#000000" stroke-width="0.02"></ellipse></g><g transform="translate(6.5 5.5) rotate(0)"><ellipse rx="0.4" ry="0.4" fill="#ffffff" stroke="#000000" stroke-width="0.02"></ellipse></g><g transform="translate(5.5 5.5) rotate(0)"><ellipse rx="0.4" ry="0.4" fill="#ffffff" stroke="#000000" stroke-width="0.02"></ellipse></g><line x1="1" y1="0" x2="1" y2="9" stroke-width="0.015" stroke="#000"></line><line x1="2" y1="0" x2="2" y2="9" stroke-width="0.015" stroke="#000"></line><line x1="3" y1="0" x2="3" y2="9" stroke-width="0.015" stroke="#000"></line><line x1="4" y1="0" x2="4" y2="9" stroke-width="0.015" stroke="#000"></line><line x1="5" y1="0" x2="5" y2="9" stroke-width="0.015" stroke="#000"></line><line x1="6" y1="0" x2="6" y2="9" stroke-width="0.015" stroke="#000"></line><line x1="7" y1="0" x2="7" y2="9" stroke-width="0.015" stroke="#000"></line><line x1="8" y1="0" x2="8" y2="9" stroke-width="0.015" stroke="#000"></line><line x1="0" y1="1" x2="9" y2="1" stroke-width="0.015" stroke="#000"></line><line x1="0" y1="2" x2="9" y2="2" stroke-width="0.015" stroke="#000"></line><line x1="0" y1="3" x2="9" y2="3" stroke-width="0.015" stroke="#000"></line><line x1="0" y1="4" x2="9" y2="4" stroke-width="0.015" stroke="#000"></line><line x1="0" y1="5" x2="9" y2="5" stroke-width="0.015" stroke="#000"></line><line x1="0" y1="6" x2="9" y2="6" stroke-width="0.015" stroke="#000"></line><line x1="0" y1="7" x2="9" y2="7" stroke-width="0.015" stroke="#000"></line><line x1="0" y1="8" x2="9" y2="8" stroke-width="0.015" stroke="#000"></line><rect width="9" height="9" fill="none" stroke="#000" stroke-width="0.015"></rect></g><g transform="translate(25 25) scale(25)" paint-order="stroke" stroke="#fff" stroke-linecap="round" stroke-linejoin="round" style="fill: #5274ea;"></g><g transform="translate(75 25) scale(25)" paint-order="stroke" stroke="#fff" stroke-linecap="round" stroke-linejoin="round" style="fill: #5274ea;"></g><g transform="translate(125 25) scale(25)" paint-order="stroke" stroke="#fff" stroke-linecap="round" stroke-linejoin="round" style="fill: #5274ea;"></g><g transform="translate(175 25) scale(25)" paint-order="stroke" stroke="#fff" stroke-linecap="round" stroke-linejoin="round" style="fill: #5274ea;"></g><g transform="translate(225 25) scale(25)" paint-order="stroke" stroke="#fff" stroke-linecap="round" stroke-linejoin="round" style="fill: #5274ea;"></g><g transform="translate(275 25) scale(25)" paint-order="stroke" stroke="#fff" stroke-linecap="round" stroke-linejoin="round" style="fill: #5274ea;"></g><g transform="translate(325 25) scale(25)" paint-order="stroke" stroke="#fff" stroke-linecap="round" stroke-linejoin="round" style="fill: #5274ea;"></g><g transform="translate(375 25) scale(25)" paint-order="stroke" stroke="#fff" stroke-linecap="round" stroke-linejoin="round" style="fill: #5274ea;"></g><g transform="translate(425 25) scale(25)" paint-order="stroke" stroke="#fff" stroke-linecap="round" stroke-linejoin="round" style="fill: #5274ea;"></g><g transform="translate(25 75) scale(25)" paint-order="stroke" stroke="#fff" stroke-linecap="round" stroke-linejoin="round" style="fill: #5274ea;"></g><g transform="translate(75 75) scale(25)" paint-order="stroke" stroke="#fff" stroke-linecap="round" stroke-linejoin="round" style="fill: #5274ea;"></g><g transform="translate(125 75) scale(25)" paint-order="stroke" stroke="#fff" stroke-linecap="round" stroke-linejoin="round" style="fill: #5274ea;"></g><g transform="translate(175 75) scale(25)" paint-order="stroke" stroke="#fff" stroke-linecap="round" stroke-linejoin="round" style="fill: #5274ea;"></g><g transform="translate(225 75) scale(25)" paint-order="stroke" stroke="#fff" stroke-linecap="round" stroke-linejoin="round" style="fill: #5274ea;"></g><g transform="translate(275 75) scale(25)" paint-order="stroke" stroke="#fff" stroke-linecap="round" stroke-linejoin="round" style="fill: #5274ea;"></g><g transform="translate(325 75) scale(25)" paint-order="stroke" stroke="#fff" stroke-linecap="round" stroke-linejoin="round" style="fill: #5274ea;"></g><g transform="translate(375 75) scale(25)" paint-order="stroke" stroke="#fff" stroke-linecap="round" stroke-linejoin="round" style="fill: #5274ea;"></g><g transform="translate(425 75) scale(25)" paint-order="stroke" stroke="#fff" stroke-linecap="round" stroke-linejoin="round" style="fill: #5274ea;"></g><g transform="translate(25 125) scale(25)" paint-order="stroke" stroke="#fff" stroke-linecap="round" stroke-linejoin="round" style="fill: #5274ea;"></g><g transform="translate(75 125) scale(25)" paint-order="stroke" stroke="#fff" stroke-linecap="round" stroke-linejoin="round" style="fill: #5274ea;"></g><g transform="translate(125 125) scale(25)" paint-order="stroke" stroke="#fff" stroke-linecap="round" stroke-linejoin="round" style="fill: #5274ea;"></g><g transform="translate(175 125) scale(25)" paint-order="stroke" stroke="#fff" stroke-linecap="round" stroke-linejoin="round" style="fill: #5274ea;"></g><g transform="translate(225 125) scale(25)" paint-order="stroke" stroke="#fff" stroke-linecap="round" stroke-linejoin="round" style="fill: #5274ea;"></g><g transform="translate(275 125) scale(25)" paint-order="stroke" stroke="#fff" stroke-linecap="round" stroke-linejoin="round" style="fill: #5274ea;"></g><g transform="translate(325 125) scale(25)" paint-order="stroke" stroke="#fff" stroke-linecap="round" stroke-linejoin="round" style="fill: #5274ea;"></g><g transform="translate(375 125) scale(25)" paint-order="stroke" stroke="#fff" stroke-linecap="round" stroke-linejoin="round" style="fill: #5274ea;"></g><g transform="translate(425 125) scale(25)" paint-order="stroke" stroke="#fff" stroke-linecap="round" stroke-linejoin="round" style="fill: #5274ea;"></g><g transform="translate(25 175) scale(25)" paint-order="stroke" stroke="#fff" stroke-linecap="round" stroke-linejoin="round" style="fill: #5274ea;"></g><g transform="translate(75 175) scale(25)" paint-order="stroke" stroke="#fff" stroke-linecap="round" stroke-linejoin="round" style="fill: #5274ea;"></g><g transform="translate(125 175) scale(25)" paint-order="stroke" stroke="#fff" stroke-linecap="round" stroke-linejoin="round" style="fill: #5274ea;"></g><g transform="translate(175 175) scale(25)" paint-order="stroke" stroke="#fff" stroke-linecap="round" stroke-linejoin="round" style="fill: #5274ea;"></g><g transform="translate(225 175) scale(25)" paint-order="stroke" stroke="#fff" stroke-linecap="round" stroke-linejoin="round" style="fill: #5274ea;"></g><g transform="translate(275 175) scale(25)" paint-order="stroke" stroke="#fff" stroke-linecap="round" stroke-linejoin="round" style="fill: #5274ea;"></g><g transform="translate(325 175) scale(25)" paint-order="stroke" stroke="#fff" stroke-linecap="round" stroke-linejoin="round" style="fill: #5274ea;"></g><g transform="translate(375 175) scale(25)" paint-order="stroke" stroke="#fff" stroke-linecap="round" stroke-linejoin="round" style="fill: #5274ea;"></g><g transform="translate(425 175) scale(25)" paint-order="stroke" stroke="#fff" stroke-linecap="round" stroke-linejoin="round" style="fill: #5274ea;"></g><g transform="translate(25 225) scale(25)" paint-order="stroke" stroke="#fff" stroke-linecap="round" stroke-linejoin="round" style="fill: #5274ea;"></g><g transform="translate(75 225) scale(25)" paint-order="stroke" stroke="#fff" stroke-linecap="round" stroke-linejoin="round" style="fill: #5274ea;"></g><g transform="translate(125 225) scale(25)" paint-order="stroke" stroke="#fff" stroke-linecap="round" stroke-linejoin="round" style="fill: #5274ea;"></g><g transform="translate(175 225) scale(25)" paint-order="stroke" stroke="#fff" stroke-linecap="round" stroke-linejoin="round" style="fill: #5274ea;"></g><g transform="translate(225 225) scale(25)" paint-order="stroke" stroke="#fff" stroke-linecap="round" stroke-linejoin="round" style="fill: #5274ea;"></g><g transform="translate(275 225) scale(25)" paint-order="stroke" stroke="#fff" stroke-linecap="round" stroke-linejoin="round" style="fill: #5274ea;"></g><g transform="translate(325 225) scale(25)" paint-order="stroke" stroke="#fff" stroke-linecap="round" stroke-linejoin="round" style="fill: #5274ea;"></g><g transform="translate(375 225) scale(25)" paint-order="stroke" stroke="#fff" stroke-linecap="round" stroke-linejoin="round" style="fill: #5274ea;"></g><g transform="translate(425 225) scale(25)" paint-order="stroke" stroke="#fff" stroke-linecap="round" stroke-linejoin="round" style="fill: #5274ea;"></g><g transform="translate(25 275) scale(25)" paint-order="stroke" stroke="#fff" stroke-linecap="round" stroke-linejoin="round" style="fill: #5274ea;"></g><g transform="translate(75 275) scale(25)" paint-order="stroke" stroke="#fff" stroke-linecap="round" stroke-linejoin="round" style="fill: #5274ea;"></g><g transform="translate(125 275) scale(25)" paint-order="stroke" stroke="#fff" stroke-linecap="round" stroke-linejoin="round" style="fill: #5274ea;"></g><g transform="translate(175 275) scale(25)" paint-order="stroke" stroke="#fff" stroke-linecap="round" stroke-linejoin="round" style="fill: #5274ea;"></g><g transform="translate(225 275) scale(25)" paint-order="stroke" stroke="#fff" stroke-linecap="round" stroke-linejoin="round" style="fill: #5274ea;"></g><g transform="translate(275 275) scale(25)" paint-order="stroke" stroke="#fff" stroke-linecap="round" stroke-linejoin="round" style="fill: #5274ea;"></g><g transform="translate(325 275) scale(25)" paint-order="stroke" stroke="#fff" stroke-linecap="round" stroke-linejoin="round" style="fill: #5274ea;"></g><g transform="translate(375 275) scale(25)" paint-order="stroke" stroke="#fff" stroke-linecap="round" stroke-linejoin="round" style="fill: #5274ea;"></g><g transform="translate(425 275) scale(25)" paint-order="stroke" stroke="#fff" stroke-linecap="round" stroke-linejoin="round" style="fill: #5274ea;"></g><g transform="translate(25 325) scale(25)" paint-order="stroke" stroke="#fff" stroke-linecap="round" stroke-linejoin="round" style="fill: #5274ea;"></g><g transform="translate(75 325) scale(25)" paint-order="stroke" stroke="#fff" stroke-linecap="round" stroke-linejoin="round" style="fill: #5274ea;"></g><g transform="translate(125 325) scale(25)" paint-order="stroke" stroke="#fff" stroke-linecap="round" stroke-linejoin="round" style="fill: #5274ea;"></g><g transform="translate(175 325) scale(25)" paint-order="stroke" stroke="#fff" stroke-linecap="round" stroke-linejoin="round" style="fill: #5274ea;"></g><g transform="translate(225 325) scale(25)" paint-order="stroke" stroke="#fff" stroke-linecap="round" stroke-linejoin="round" style="fill: #5274ea;"></g><g transform="translate(275 325) scale(25)" paint-order="stroke" stroke="#fff" stroke-linecap="round" stroke-linejoin="round" style="fill: #5274ea;"></g><g transform="translate(325 325) scale(25)" paint-order="stroke" stroke="#fff" stroke-linecap="round" stroke-linejoin="round" style="fill: #5274ea;"></g><g transform="translate(375 325) scale(25)" paint-order="stroke" stroke="#fff" stroke-linecap="round" stroke-linejoin="round" style="fill: #5274ea;"></g><g transform="translate(425 325) scale(25)" paint-order="stroke" stroke="#fff" stroke-linecap="round" stroke-linejoin="round" style="fill: #5274ea;"></g><g transform="translate(25 375) scale(25)" paint-order="stroke" stroke="#fff" stroke-linecap="round" stroke-linejoin="round" style="fill: #5274ea;"></g><g transform="translate(75 375) scale(25)" paint-order="stroke" stroke="#fff" stroke-linecap="round" stroke-linejoin="round" style="fill: #5274ea;"></g><g transform="translate(125 375) scale(25)" paint-order="stroke" stroke="#fff" stroke-linecap="round" stroke-linejoin="round" style="fill: #5274ea;"></g><g transform="translate(175 375) scale(25)" paint-order="stroke" stroke="#fff" stroke-linecap="round" stroke-linejoin="round" style="fill: #5274ea;"></g><g transform="translate(225 375) scale(25)" paint-order="stroke" stroke="#fff" stroke-linecap="round" stroke-linejoin="round" style="fill: #5274ea;"></g><g transform="translate(275 375) scale(25)" paint-order="stroke" stroke="#fff" stroke-linecap="round" stroke-linejoin="round" style="fill: #5274ea;"></g><g transform="translate(325 375) scale(25)" paint-order="stroke" stroke="#fff" stroke-linecap="round" stroke-linejoin="round" style="fill: #5274ea;"></g><g transform="translate(375 375) scale(25)" paint-order="stroke" stroke="#fff" stroke-linecap="round" stroke-linejoin="round" style="fill: #5274ea;"></g><g transform="translate(425 375) scale(25)" paint-order="stroke" stroke="#fff" stroke-linecap="round" stroke-linejoin="round" style="fill: #5274ea;"></g><g transform="translate(25 425) scale(25)" paint-order="stroke" stroke="#fff" stroke-linecap="round" stroke-linejoin="round" style="fill: #5274ea;"></g><g transform="translate(75 425) scale(25)" paint-order="stroke" stroke="#fff" stroke-linecap="round" stroke-linejoin="round" style="fill: #5274ea;"></g><g transform="translate(125 425) scale(25)" paint-order="stroke" stroke="#fff" stroke-linecap="round" stroke-linejoin="round" style="fill: #5274ea;"></g><g transform="translate(175 425) scale(25)" paint-order="stroke" stroke="#fff" stroke-linecap="round" stroke-linejoin="round" style="fill: #5274ea;"></g><g transform="translate(225 425) scale(25)" paint-order="stroke" stroke="#fff" stroke-linecap="round" stroke-linejoin="round" style="fill: #5274ea;"></g><g transform="translate(275 425) scale(25)" paint-order="stroke" stroke="#fff" stroke-linecap="round" stroke-linejoin="round" style="fill: #5274ea;"></g><g transform="translate(325 425) scale(25)" paint-order="stroke" stroke="#fff" stroke-linecap="round" stroke-linejoin="round" style="fill: #5274ea;"></g><g transform="translate(375 425) scale(25)" paint-order="stroke" stroke="#fff" stroke-linecap="round" stroke-linejoin="round" style="fill: #5274ea;"></g><g transform="translate(425 425) scale(25)" paint-order="stroke" stroke="#fff" stroke-linecap="round" stroke-linejoin="round" style="fill: #5274ea;"></g><g transform="scale(50)"></g></g></svg>